<svg width="512" height="142" viewBox="0 0 512 142" fill="none" xmlns="http://www.w3.org/2000/svg">
<path d="M122.031 58.5625V53.875H145.469V58.5625H122.031ZM129.719 85.1875V55.9375V55.375V37.2812H134.875V85.1875C134.875 88.5938 135.344 90.7969 136.281 91.7969C137.25 92.7656 138.75 93.25 140.781 93.25C141.5 93.25 142.203 93.1875 142.891 93.0625C143.609 92.9375 144.281 92.7188 144.906 92.4062V97.1406C144.344 97.3594 143.609 97.5469 142.703 97.7031C141.828 97.8594 140.875 97.9375 139.844 97.9375C136.688 97.9375 134.203 97.0312 132.391 95.2188C130.609 93.375 129.719 90.0312 129.719 85.1875ZM147.812 116.5V111.953C148.594 112.234 149.391 112.422 150.203 112.516C151.047 112.641 151.906 112.703 152.781 112.703C154.875 112.734 156.656 111.547 158.125 109.141C159.625 106.734 161.281 102.797 163.094 97.3281V97.2812L146.453 53.875H152.031L163.797 85.75C164.234 86.9062 164.594 87.9062 164.875 88.75C165.156 89.5625 165.406 90.3906 165.625 91.2344H165.859C166.078 90.3906 166.328 89.5469 166.609 88.7031C166.922 87.8594 167.297 86.8438 167.734 85.6562L179.734 53.875H184.984L165.906 103.562C164.094 108.281 162.312 111.766 160.562 114.016C158.812 116.297 156.359 117.438 153.203 117.438C152.047 117.438 151.047 117.344 150.203 117.156C149.391 117 148.594 116.781 147.812 116.5ZM190.469 117.766V53.875H195.391V60.0625H195.484C196.641 58.0625 198.484 56.375 201.016 55C203.547 53.625 206.359 52.9375 209.453 52.9375C214.891 52.9375 219.109 54.875 222.109 58.75C225.109 62.5938 226.609 67.8125 226.609 74.4062V75.9062C226.609 82.625 225.109 87.9844 222.109 91.9844C219.109 95.9531 214.891 97.9375 209.453 97.9375C206.328 97.9375 203.609 97.3438 201.297 96.1562C199.016 94.9375 197.141 93.3438 195.672 91.375V117.766H190.469ZM195.672 85.0469C196.641 87.2031 198.188 89.1094 200.312 90.7656C202.438 92.4219 205.031 93.25 208.094 93.25C212.625 93.25 215.953 91.6094 218.078 88.3281C220.203 85.0469 221.266 80.8906 221.266 75.8594V74.4062C221.266 69.4062 220.203 65.375 218.078 62.3125C215.953 59.2188 212.625 57.6719 208.094 57.6719C205.062 57.6719 202.469 58.5 200.312 60.1562C198.188 61.7812 196.641 63.6562 195.672 65.7812V85.0469ZM232 76.1406V74.6406C232 68.1406 233.672 62.9062 237.016 58.9375C240.359 54.9375 244.781 52.9375 250.281 52.9375C255.812 52.9375 260.031 54.7812 262.938 58.4688C265.844 62.125 267.297 67.3125 267.297 74.0312V76.0938H234.906V71.6406H262.094V71.3125C262.094 67.7812 261.203 64.6094 259.422 61.7969C257.641 58.9531 254.594 57.5312 250.281 57.5312C245.969 57.5312 242.703 59.0938 240.484 62.2188C238.266 65.3438 237.156 69.4844 237.156 74.6406V76.1406C237.156 81.2969 238.328 85.4531 240.672 88.6094C243.047 91.7656 246.453 93.3438 250.891 93.3438C253.891 93.3438 256.438 92.75 258.531 91.5625C260.656 90.3438 262.297 88.7812 263.453 86.875L266.922 90.2031C265.734 92.1406 263.812 93.9219 261.156 95.5469C258.531 97.1406 255.141 97.9375 250.984 97.9375C244.953 97.9375 240.281 95.9688 236.969 92.0312C233.656 88.0625 232 82.7656 232 76.1406ZM275.219 97V53.875H280.141V59.875H280.234C281.484 57.875 283.094 56.2188 285.062 54.9062C287.062 53.5938 289.484 52.9375 292.328 52.9375C292.859 52.9375 293.5 52.9844 294.25 53.0781C295 53.1719 295.531 53.2812 295.844 53.4062V58.2812C295.312 58.1562 294.688 58.0469 293.969 57.9531C293.25 57.8594 292.469 57.8125 291.625 57.8125C289.375 57.8125 287.234 58.5625 285.203 60.0625C283.172 61.5312 281.578 63.4688 280.422 65.875V97H275.219ZM301 97V53.875H305.922V59.875H306.016C307.266 57.875 308.875 56.2188 310.844 54.9062C312.844 53.5938 315.266 52.9375 318.109 52.9375C318.641 52.9375 319.281 52.9844 320.031 53.0781C320.781 53.1719 321.312 53.2812 321.625 53.4062V58.2812C321.094 58.1562 320.469 58.0469 319.75 57.9531C319.031 57.8594 318.25 57.8125 317.406 57.8125C315.156 57.8125 313.016 58.5625 310.984 60.0625C308.953 61.5312 307.359 63.4688 306.203 65.875V97H301ZM323.031 76.1406V74.6406C323.031 68.1406 324.781 62.9062 328.281 58.9375C331.812 54.9375 336.5 52.9375 342.344 52.9375C348.219 52.9375 352.906 54.9375 356.406 58.9375C359.906 62.9062 361.656 68.1406 361.656 74.6406V76.1406C361.656 82.7031 359.906 87.9844 356.406 91.9844C352.906 95.9531 348.219 97.9375 342.344 97.9375C336.469 97.9375 331.781 95.9531 328.281 91.9844C324.781 87.9844 323.031 82.7031 323.031 76.1406ZM328.375 74.6875V76.1406C328.375 81.1406 329.562 85.25 331.938 88.4688C334.312 91.6562 337.766 93.25 342.297 93.25C346.891 93.25 350.375 91.6562 352.75 88.4688C355.125 85.25 356.312 81.125 356.312 76.0938V74.6875C356.312 69.6562 355.125 65.5625 352.75 62.4062C350.375 59.25 346.891 57.6719 342.297 57.6719C337.766 57.6719 334.312 59.25 331.938 62.4062C329.562 65.5625 328.375 69.6562 328.375 74.6875ZM369.906 97V53.875H374.828V59.875H374.922C376.172 57.875 377.781 56.2188 379.75 54.9062C381.75 53.5938 384.172 52.9375 387.016 52.9375C387.547 52.9375 388.188 52.9844 388.938 53.0781C389.688 53.1719 390.219 53.2812 390.531 53.4062V58.2812C390 58.1562 389.375 58.0469 388.656 57.9531C387.938 57.8594 387.156 57.8125 386.312 57.8125C384.062 57.8125 381.922 58.5625 379.891 60.0625C377.859 61.5312 376.266 63.4688 375.109 65.875V97H369.906Z" fill="black"/>
<line y1="-2" x2="26.0978" y2="-2" transform="matrix(0.759705 -0.650268 0.759705 0.650268 124 139.971)" stroke="#FF0000" stroke-width="4"/>
<line y1="-2" x2="26.0978" y2="-2" transform="matrix(0.759705 0.650268 -0.759705 0.650268 137.08 123.265)" stroke="#FF0000" stroke-width="4"/>
<line y1="-2" x2="26.0978" y2="-2" transform="matrix(0.759705 -0.650268 0.759705 0.650268 156.941 140.236)" stroke="#FF0000" stroke-width="4"/>
<line y1="-2" x2="26.0978" y2="-2" transform="matrix(0.759705 0.650268 -0.759705 0.650268 170.022 123.531)" stroke="#FF0000" stroke-width="4"/>
<line y1="-2" x2="26.0978" y2="-2" transform="matrix(0.759705 -0.650268 0.759705 0.650268 189.654 140.236)" stroke="#FF0000" stroke-width="4"/>
<line y1="-2" x2="26.0978" y2="-2" transform="matrix(0.759705 0.650268 -0.759705 0.650268 202.734 123.531)" stroke="#FF0000" stroke-width="4"/>
<line y1="-2" x2="26.0978" y2="-2" transform="matrix(0.759705 -0.650268 0.759705 0.650268 222.595 140.501)" stroke="#FF0000" stroke-width="4"/>
<line y1="-2" x2="26.0978" y2="-2" transform="matrix(0.759705 0.650268 -0.759705 0.650268 235.675 123.796)" stroke="#FF0000" stroke-width="4"/>
<line y1="-2" x2="26.0978" y2="-2" transform="matrix(0.759705 -0.650268 0.759705 0.650268 256.017 140.971)" stroke="#FF0000" stroke-width="4"/>
<line y1="-2" x2="26.0978" y2="-2" transform="matrix(0.759705 0.650268 -0.759705 0.650268 269.098 124.265)" stroke="#FF0000" stroke-width="4"/>
<line y1="-2" x2="26.0978" y2="-2" transform="matrix(0.759705 -0.650268 0.759705 0.650268 288.959 141.236)" stroke="#FF0000" stroke-width="4"/>
<line y1="-2" x2="26.0978" y2="-2" transform="matrix(0.759705 0.650268 -0.759705 0.650268 302.039 124.531)" stroke="#FF0000" stroke-width="4"/>
<line y1="-2" x2="26.0978" y2="-2" transform="matrix(0.759705 -0.650268 0.759705 0.650268 321.671 141.236)" stroke="#FF0000" stroke-width="4"/>
<line y1="-2" x2="26.0978" y2="-2" transform="matrix(0.759705 0.650268 -0.759705 0.650268 335.461 124)" stroke="#FF0000" stroke-width="4"/>
<line y1="-2" x2="26.0978" y2="-2" transform="matrix(0.759705 -0.650268 0.759705 0.650268 355.322 140.971)" stroke="#FF0000" stroke-width="4"/>
<line y1="-2" x2="26.0978" y2="-2" transform="matrix(0.759705 0.650268 -0.759705 0.650268 368.173 124)" stroke="#FF0000" stroke-width="4"/>
</svg>
