<svg width="32" height="32" viewBox="0 0 64 64" fill="none" xmlns="http://www.w3.org/2000/svg">
<path d="M27.5 11C27.5 9.34315 28.8431 8 30.5 8H33.5C35.1569 8 36.5 9.34315 36.5 11L36.8601 13.521C37.1826 15.7783 39.8059 16.8648 41.63 15.4967L43.6673 13.9688C44.8388 12.7972 46.7383 12.7972 47.9099 13.9688L50.0312 16.0901C51.2028 17.2617 51.2028 19.1612 50.0312 20.3327L48.5033 22.37C47.1352 24.1941 48.2218 26.8174 50.479 27.1399L53 27.5C54.6569 27.5 56 28.8431 56 30.5V33.5C56 35.1569 54.6569 36.5 53 36.5L50.479 36.8601C48.2218 37.1826 47.1352 39.8059 48.5033 41.63L50.0312 43.6673C51.2028 44.8388 51.2028 46.7383 50.0312 47.9099L47.9099 50.0312C46.7383 51.2028 44.8388 51.2028 43.6673 50.0312L41.63 48.5033C39.8059 47.1352 37.1826 48.2218 36.8601 50.479L36.5 53C36.5 54.6569 35.1569 56 33.5 56H30.5C28.8431 56 27.5 54.6569 27.5 53L27.1399 50.479C26.8174 48.2218 24.1941 47.1352 22.37 48.5033L20.3327 50.0312C19.1612 51.2028 17.2617 51.2028 16.0901 50.0312L13.9688 47.9099C12.7972 46.7383 12.7972 44.8388 13.9688 43.6673L15.4967 41.63C16.8648 39.8059 15.7783 37.1826 13.521 36.8601L11 36.5C9.34315 36.5 8 35.1569 8 33.5V30.5C8 28.8431 9.34315 27.5 11 27.5L13.521 27.1399C15.7782 26.8174 16.8648 24.1941 15.4967 22.37L13.9688 20.3327C12.7972 19.1612 12.7972 17.2617 13.9688 16.0901L16.0901 13.9688C17.2617 12.7972 19.1612 12.7972 20.3327 13.9688L22.37 15.4967C24.1941 16.8648 26.8174 15.7783 27.1399 13.521L27.5 11Z" stroke="black" stroke-width="2" stroke-linecap="round" stroke-linejoin="round"/>
<circle cx="32" cy="32" r="5.33333" stroke="black" stroke-width="2" stroke-linecap="round" stroke-linejoin="round"/>
</svg>
